<?xml version="1.0" encoding="UTF-8"?>
<svg id="Layer_1" data-name="Layer 1" xmlns="http://www.w3.org/2000/svg" version="1.1" viewBox="0 0 472.47 732.82">
  <defs>
    <style>
      .cls-1 {
        fill: #fff;
        stroke-width: 0px;
      }
    </style>
  </defs>
  <path class="cls-1" d="M243.75,245.45c-1.61-13.37-3.49-26.71-4.76-40.11-1.23-13.04-3.48-26.28-2.38-39.18,2.51-29.25,29.12-52.03,59.15-52.51,29.54-.47,56.44,21.74,60.59,50.54,2.75,19.1,4.83,38.31,7.2,57.46,6.65,53.69,13.25,107.38,20.06,161.04.36,2.85,1.98,6.03,4,8.11,11.35,11.74,22.82,23.37,34.57,34.7,29.25,28.2,46.23,62.33,49.66,102.86,2.22,26.34-1.38,51.99-13.25,75.82-43.24,86.75-135.57,137.2-232.63,127.44-47.2-4.75-89.98-21.34-125.39-52.8-29.84-26.52-58.37-54.77-85.34-84.2-30.75-33.55-12.33-87.64,31.96-98.31,2.37-.57,4.74-1.11,7.5-1.75-7.29-19.31-6.89-37.88,3.54-55.54,10.54-17.84,26.68-27.33,47.54-30.03-5.51-17.71-5.05-34.77,3.92-50.98,9.06-16.39,23.27-26.09,41.96-31.58-1.16-1.63-3.03-2.3-4.3-3.57-35.04-34.95-70.04-69.93-104.98-104.97-14.08-14.12-20.21-31.38-17.5-51.01,3.43-24.77,17.38-42.08,41.15-49.92,23.73-7.83,45.1-2.28,62.89,15.39,29.68,29.47,59.18,59.11,88.73,88.71,8.32,8.33,16.54,16.77,24.8,25.15.44-.25.87-.51,1.31-.76ZM428.55,606.54c29.03-47.37,25.25-95.41-5.17-140.95-8.95-13.39-21.33-24.63-32.83-36.16-92.72-92.97-185.62-185.77-278.43-278.65-10.55-10.55-22.88-14.77-37.34-10.4-13.6,4.1-22.01,13.56-24.78,27.44-2.56,12.88,1.49,23.95,10.78,33.2,20.88,20.83,41.72,41.7,62.57,62.56,48.3,48.32,96.64,96.6,144.8,145.06,2.59,2.61,4.46,6.62,5.14,10.26.94,5.06-2.16,8.96-6.62,11.29-4.52,2.36-9.08,1.82-13.17-1.22-1.72-1.28-3.18-2.94-4.71-4.47-24.63-24.62-49.29-49.22-73.83-73.93-2.26-2.27-4.16-3.14-7.32-2.02-5.16,1.84-10.53,3.09-15.75,4.79-18.03,5.89-28.1,24.49-23.68,42.91,2.5,10.4,6.97,19.06,14.99,26.73,22.87,21.88,44.97,44.57,67.27,67.04,2.04,2.05,3.94,4.65,4.83,7.35,1.76,5.31-.79,10.99-5.43,13.83-4.98,3.04-11.06,2.38-15.57-2.06-9.86-9.7-19.59-19.53-29.37-29.31-14.25-14.26-28.6-28.43-42.68-42.86-3.08-3.16-5.87-4.22-10.36-3.64-11.08,1.44-21.15,4.42-28.59,13.42-7.62,9.23-10.43,19.85-7.5,31.32,2.75,10.75,6.74,20.76,15.57,28.84,15.23,13.93,29.36,29.07,44.02,43.62,3.81,3.79,6.04,7.99,4.59,13.42-2.57,9.64-13.98,12.53-21.4,5.23-14.96-14.73-29.96-29.43-44.45-44.62-4.78-5.01-9.12-6.54-16.02-5.21-15.02,2.92-26.01,10.3-30.82,25.05-4.82,14.78-.51,27.4,10.39,38.21,22.48,22.29,44.5,45.06,67.31,67,40.27,38.74,88.84,57.5,150.16,58.5,71.87-2.57,132.73-35.22,173.4-101.58ZM348.82,305.34c-3.82-30.89-7.65-61.78-11.46-92.67-1.75-14.2-3.25-28.44-5.26-42.61-2.81-19.82-20.94-33.84-39.72-31.09-20.88,3.05-33.9,20.36-31.3,41.32,3.81,30.72,7.44,61.46,11.28,92.18.25,1.96,1.21,4.21,2.58,5.59,26.16,26.36,52.44,52.61,78.7,78.88.22.22.56.3,1.68.88-2.21-17.83-4.36-35.15-6.5-52.47Z"/>
  <path class="cls-1" d="M193.97,22.45c-6.7-11.04-15.75-18.33-28.14-21.28-28.17-6.72-54.9,17.08-51.89,45.92,2.07,19.84,11.67,35.86,24.32,50.41,15.12,17.38,33.16,31.27,52.84,43.1,1.31.79,3.72,1.3,4.82.63,27.02-16.43,51.61-35.61,68.05-63.33,7.8-13.15,12.33-27.4,9.59-42.95-3.06-17.33-15.94-30.33-33.13-34.03-16.68-3.59-34.23,3.63-44.02,18.09-.73,1.07-1.5,2.11-2.45,3.44Z"/>
</svg>