<?xml version="1.0" encoding="UTF-8"?>
<svg id="Layer_1" data-name="Layer 1" xmlns="http://www.w3.org/2000/svg" version="1.1" viewBox="0 0 254.9 254.9">
  <defs>
    <style>
      .cls-1 {
        fill: #fff;
        stroke-width: 0px;
      }
    </style>
  </defs>
  <path class="cls-1" d="M90,234.4c-7.7-.2-14.3-3.3-19.2-9.6-21.3-27.5-42.6-55-63.6-82.6-6.7-8.8-6.7-20.2,0-29.1,21.2-27.6,42.3-55.2,63.7-82.6,10.3-13.3,28.7-12.7,39.3.8,17.2,22.1,34.1,44.2,51.2,66.4,3.6,4.6,7.3,9.4,10.8,14.1,7.7,10.1,7.8,21.4,0,31.5-20.6,26.9-41.4,53.6-62,80.5-5.1,6.5-11.6,10.2-20.1,10.4h-.1Z"/>
  <path class="cls-1" d="M127.5,234.3v-12.5c6.2-.1,9.3-4.7,12.6-9.2,19.5-25.4,39.1-50.8,58.7-76.1,5.1-6.5,5.1-11.3,0-17.8-20-26-40.1-51.9-60-77.9-2.9-3.8-6-7-11.3-7.3v-12.4c8.1.2,14.5,3.5,19.4,9.7,7.4,9.5,14.7,19.1,22.1,28.7,13.2,17.1,26.2,34,39.4,51.1,9.3,11.9,9.3,22.4,0,34.3-20.3,26.3-40.7,52.6-60.9,78.9-4.3,5.6-9.6,9.2-16.6,10.2-1.1.1-2.1.2-3.4.2h0Z"/>
  <path class="cls-1" d="M164.9,234.3v-12.4c6.4-.3,9.5-5.2,13-9.7,19.2-24.9,38.3-49.7,57.5-74.6,6.2-8.1,6.2-11.8,0-19.9-19.8-25.7-39.7-51.4-59.4-77.1-2.8-3.7-5.9-6.7-11.1-7.1v-12.5c7.9.2,14.3,3.3,19.1,9.4,9.9,12.7,19.7,25.5,29.6,38.2,11.1,14.3,22.1,28.7,33.2,43,7.9,10.2,7.9,21.6,0,31.8-20.5,26.6-41.2,53.3-61.7,80.1-5.1,6.6-11.5,10.4-20.2,10.7h.1Z"/>
</svg>