<?xml version="1.0" encoding="UTF-8"?>
<svg xmlns="http://www.w3.org/2000/svg" version="1.1" viewBox="0 0 2021.71 696.15">
  <defs>
    <style>
      .cls-1 {
        fill: #fff;
      }
    </style>
  </defs>
  <!-- Generator: Adobe Illustrator 28.6.0, SVG Export Plug-In . SVG Version: 1.2.0 Build 709)  -->
  <g>
    <g id="Layer_1">
      <g>
        <path class="cls-1" d="M641.92.01c17.48,0,35.44-.04,53.39,0,29.31.07,58.63-.17,87.94.4,30.88.6,61.07,5.17,87.92,21.78,42.9,26.55,70.12,63.68,75.77,114.9,4.4,39.9-5.52,75.92-30.93,106.93-14.79,18.04-34.14,30.42-56.46,37.8-4.94,1.63-5.23,2.49-2,6.72,10.16,13.3,19.74,27.11,30.65,39.77,23.84,27.66,53.2,47.22,88.56,57.36,12.83,3.68,25.86,6.46,39.2,5.81,25.45-1.25,48.88-8.13,66.54-27.89,9.46-10.58,15.07-23.19,18.2-37.12,3.42-15.21,3.94-30.56,3.95-46.01.03-90.52.07-181.05.11-271.57,0-2.65,0-5.29,0-8.34,1.76-.17,3.18-.41,4.6-.42,25.32-.01,50.63.06,75.95-.04,4.41-.02,7.07,1.45,7.44,6.01.3,3.63.68,7.26.68,10.89,0,91.19.18,182.38-.21,273.57-.12,28.59-2.36,57.08-13.19,84.12-14.42,35.99-38.42,63.88-71.87,83.32-33.24,19.32-69.43,26.4-107.69,24.39-51.59-2.7-96.71-21.87-136.94-53.34-30.34-23.74-55.27-52.62-77.62-83.82-9.76-13.62-19.39-27.34-29.39-40.77-3.57-4.79-4.24-10.13-4.28-15.53-.2-25.77-.09-51.54-.09-77.7,4.58,0,9.17-.17,13.73.03,15.12.65,30.3,1.94,45.23-1.41,24.79-5.56,42.11-19.81,47.91-45.1,3.98-17.4-1.64-33.18-12.52-47.01-14.42-18.32-33.81-26.97-56.76-27.58-18.81-.5-37.64-.12-56.46-.39-4.04-.06-4.61,1.52-4.57,5.02.33,30.26.71,60.53.67,90.79-.13,95.17-.39,190.34-.75,285.51-.05,12.06,2.97,12.5-12.31,12.57-22.15.1-44.3.02-66.46-.03-2.29,0-4.58-.31-7.95-.56V.01Z"/>
        <path class="cls-1" d="M84.02,219.15c0,12.46,0,24.92,0,37.38-.05,65.06-.08,130.12-.2,195.18-.02,8.97-.33,17.96-.98,26.9-.12,1.65-2.21,3.93-3.88,4.51-2.73.95-5.86.96-8.83.97-21.15.07-42.31.07-63.46.02-1.97,0-3.94-.45-6.67-.78V.15c9.77,0,19.87-.02,29.97,0,21.49.05,42.97.12,64.46.22,2.98.01,6-.03,8.9.5,1.3.24,3.02,1.58,3.44,2.8,23.33,67.11,46.46,134.28,69.81,201.38,8.95,25.72,18.37,51.27,27.59,76.89.39,1.09.66,2.3,1.34,3.19.63.82,1.69,1.6,2.66,1.75.49.07,1.48-1.2,1.77-2.03,11.35-32.57,22.85-65.09,33.91-97.76,15.26-45.08,30.11-90.29,45.28-135.4,5.34-15.88,11.16-31.59,16.57-47.44,1-2.94,2.22-4.19,5.53-4.17,33.14.19,66.28.28,99.42.21,4.47,0,6.37.9,6.36,5.98-.03,37.24.46,74.48.43,111.72-.07,75.21-.41,150.41-.56,225.62-.09,43.27-.01,86.53-.02,129.8,0,10.31-.37,10.72-10.52,10.75-21.49.07-42.97.14-64.46.12-3.45,0-6.9-.46-11.12-.76V216.97c-.49-.32-.98-.64-1.47-.96-1.48,1.75-3.54,3.28-4.32,5.3-3.11,8.06-5.84,16.26-8.66,24.42-15.22,43.9-30.45,87.8-45.62,131.71-10.95,31.71-21.83,63.45-32.71,95.18-3.58,10.43-3.52,10.36-14.31,10.64-5.81.15-11.61,1.04-17.41.97-9.3-.11-18.59-.78-27.89-1.12-3.71-.14-3.86-3.02-4.61-5.51-6.18-20.66-11.82-41.5-18.64-61.95-17.91-53.71-36.33-107.24-54.56-160.84-3.42-10.06-6.8-20.14-10.47-30.1-.87-2.35-2.82-4.3-4.27-6.44l-1.78.9Z"/>
        <path class="cls-1" d="M1342.78,483.6c-3.01.26-5.14.6-7.27.6-22.47,0-44.94-.06-67.41-.1-.67,0-1.33.04-2,0-8.72-.48-9.51-1.31-9.52-10.03-.26-138.45-.52-276.89-.77-415.34-.03-19.27,0-38.54,0-58.17,2.51-.19,3.94-.4,5.37-.4,43.8.04,87.61-.21,131.41.26,26.69.29,53.09,3.23,77.87,14.34,34.55,15.49,60.55,39.76,76.42,74.4,8.37,18.28,13.18,37.45,13.81,57.57,1.18,37.53-9.85,70.89-34.07,99.83-11.38,13.6-24.72,24.62-40.74,32.28-3.86,1.84-8,3.09-12.92,4.95,1.14,1.75,2.25,3.56,3.47,5.3,24.64,35.15,49.3,70.28,73.95,105.42,19.52,27.83,39.05,55.65,58.54,83.5,1.01,1.45,1.73,3.11,3.01,5.44-2.49.27-4.2.61-5.92.61-31.64.05-63.28.12-94.92-.04-2.1-.01-4.96-1.2-6.18-2.81-18.35-24.21-36.72-48.42-54.62-72.97-25.82-35.4-51.41-70.97-76.66-106.77-3.05-4.32-4.63-10.46-4.85-15.84-.87-20.59-.92-41.21-1.27-61.82-.02-1.16.04-2.33.04-3.49.03-9.42.03-9.5,9.75-9.36,11.15.15,22.3.86,33.43.61,18.15-.4,34.73-5.41,48.06-18.53,8.45-8.31,11.74-18.84,13.86-30.2,6.15-32.99-25.88-71.59-62.87-72.09-20.64-.28-41.28-.55-61.92-.94-3.22-.06-4.34.92-4.34,4.26.04,40.6,0,81.21-.1,121.81-.18,73.39-.41,146.77-.6,220.16-.04,15.62,0,31.25,0,47.55Z"/>
        <path class="cls-1" d="M1787.72,9.68c56.26-.28,99.27,15.7,136.35,47.35,24.59,20.99,42.01,47.29,54.96,76.73,16.01,36.39,22.73,74.69,21.78,114.13-1.16,48.12-15.41,92.36-43.86,131.53-15.7,21.62-33.31,41.51-55.98,56.3-23.57,15.38-49.33,25.29-77.08,29.44-13.41,2.01-27.11,3.31-40.63,2.99-27.9-.67-54.44-8.16-79.49-20.24-41.68-20.1-70.99-52.85-92.91-92.81-15.05-27.43-22.92-56.98-26.55-87.95-5.19-44.18.96-86.64,18.4-127.41,8.86-20.71,21.5-39.23,35.35-56.96,21.02-26.89,48.15-45.43,79.26-58.68,24.86-10.59,50.98-14.2,70.39-14.42ZM1790.11,375.06c6.31-.55,12.28-.95,18.21-1.63,2.95-.34,5.85-1.19,8.77-1.8,39.83-8.32,66.84-32.2,82.11-69.22,11.59-28.09,13.47-57.61,10.18-87.67-3.8-34.75-18.21-63.79-44.66-86.91-25.66-22.43-55.49-31.05-88.86-26.19-38.06,5.55-66.28,27.09-84.43,59.84-25.23,45.53-28.03,93.8-6.48,141.44,20.18,44.62,55.45,69.67,105.15,72.14Z"/>
        <path class="cls-1" d="M484.79.33h87.21c0,3.82,0,7.42,0,11.02.19,80.51.43,161.01.55,241.52.03,20.95-.45,41.9-.5,62.85-.14,53.71-.24,107.42-.17,161.13,0,4.6-1.05,6.53-5.99,6.54-23.63.06-47.26.48-70.89.64-8.9.06-8.99-.09-9.01-8.77-.27-92.31-.55-184.62-.71-276.94-.04-23.28.57-46.56.48-69.84-.14-37.42-.63-74.84-.95-112.26-.04-5.1,0-10.2,0-15.9Z"/>
        <path class="cls-1" d="M730.68,590.92v63.99h-19.82c0,8.8-.12,17.05.15,25.28.04,1.07,2.06,2.91,3.23,2.96,5.98.27,11.99.27,17.96-.14,1.23-.09,3.04-2.18,3.32-3.6.65-3.3.53-6.76.76-10.76,3.67,1.55,6.6,2.39,9.04,3.98,1.21.79,1.87,2.9,2.12,4.51.21,1.38-.51,2.9-.88,4.35-3.03,11.96-6.03,14.34-18.44,14.2-5.81-.06-11.62-.35-17.42-.7-8.05-.49-11.57-4.1-11.78-12.28-.18-7.15-.32-14.32.03-21.45.23-4.73-1.17-6.44-6.11-6.3-11.65.33-23.31.11-34.96.11-1.64,0-3.28,0-5.39,0-.17-2.13-.43-3.9-.43-5.67-.03-18.3.04-36.6-.06-54.89-.02-2.87.61-4.26,3.82-4.24,24.48.11,48.95.1,73.43.14.3,0,.59.21,1.42.53ZM664.61,636.59c-1.43,7.54-1.19,7.82,5.45,7.82,14.62,0,29.24.02,43.86.08,2.67,0,4.89.03,4.91-3.76.02-3.57-1.8-4.08-4.67-4.06-8.64.04-17.28-.05-25.92-.07-7.92-.02-15.85,0-23.63,0ZM717.88,600.96h-53.43c-.91,7.29-.66,7.47,6.22,7.44,13.98-.06,27.95-.01,41.93.04,6.26.03,6.54-.27,5.28-7.48ZM664.88,625.95h52.63c1.36-5.74,1.1-6.02-4.04-6.06-12.78-.1-25.56-.3-38.34-.44-3.4-.04-6.81,0-10.56,0,.12,2.54.21,4.32.31,6.52Z"/>
        <path class="cls-1" d="M1036.25,610.01c3.12.82,6.25,1.65,9.6,2.53-2.81,17.46-4.63,34.95-13.69,50.52-3.24,5.57-7.29,10.4-13.41,12.79-13.3,5.19-25.54-2.38-29.04-17.39-6.51-27.95,15.28-57.22,42.16-61.39,15.14-2.35,29.01-.08,41.05,8.59,16.12,11.6,19.75,28.28,16.27,47.26-3.14,17.11-14.21,26.69-29.35,32.85-.46.19-.98.19-1.45.36q-10.66,3.82-16.24-6.77c31.9-9.66,38.06-22.25,31.93-51.21-3.3-15.57-23.96-22.42-37.35-19.66-.16.51-.32,1.02-.49,1.52ZM1031.62,610.48c-2.92.75-4.72.99-6.34,1.66-11.6,4.82-18.09,14.01-21.83,25.58-2.74,8.46-2.59,16.69,2.04,24.44,2.64,4.42,5.6,5.19,9.4,1.8,3.24-2.89,6.54-6.52,7.94-10.48,3.13-8.87,5.39-18.08,7.43-27.28,1.05-4.75.89-9.76,1.36-15.73Z"/>
        <path class="cls-1" d="M798,635.4c3.92-.93,7.81-1.99,11.75-2.77,20.42-4.06,36.77,7.85,37.36,30.09.35,13.11-12.99,26.38-27.38,29.13-8.63,1.65-17.26,4.05-25.88.1-2.39-1.1-4.99-2.12-6.88-3.84-4.02-3.67-7.44-8.21-5.91-13.97,1.94-7.31,7.47-11.59,14.51-13.83,8.17-2.6,20.22,3.99,24.28,13.13,2.8,6.3,4.18,6.42,8.34.91,5.03-6.66,5.25-14.15,2.24-21.25-3.08-7.28-9.89-9.92-17.58-10-18.6-.18-33.08,8.3-45.22,21.64-.99,1.09-1.98,2.19-3.41,3.77-3.12-2.62-6.1-5.12-10-8.39,8.98-8.73,17.7-17.26,26.48-25.73,8.79-8.49,17.63-16.92,26.45-25.37-.18-.57-.35-1.13-.53-1.7-12.37.5-24.75,1.01-37.28,1.52-.45-3.85-1.09-7.43-1.12-11.02,0-.82,2.06-2.29,3.24-2.36,4.81-.29,9.65-.06,14.48-.18,11.97-.3,23.94-.53,35.9-1.11,5.67-.28,4.26,5.49,7.04,7.64.2.15-1.25,3.13-2.44,4.25-8.86,8.29-17.86,16.41-26.75,24.66-1,.93-1.55,2.36-2.31,3.55.21.38.42.75.63,1.13ZM801.62,682.53c.03-.15.06-.3.08-.45.99,0,1.98.04,2.97,0,4.45-.2,5.21-1.59,3.06-5.55-2.51-4.64-7.9-6.9-12.64-4.8-1.51.67-3.29,2.75-3.32,4.23-.04,1.71,1.3,4.16,2.78,5.02,1.99,1.16,4.69,1.1,7.08,1.56Z"/>
        <path class="cls-1" d="M1130.91,685.54c37.58-15.3,57.36-49,60.83-68.46-8.66,0-17.2-.19-25.71.19-1.34.06-2.66,2.59-3.84,4.1-6.84,8.68-13.59,17.43-20.46,26.09-1.92,2.42-3.71,1.91-5.66-.37-1.91-2.23-4.3-4.06-6.06-5.67,17.21-14.62,25.74-34.41,33.1-55.01,4.42,1.16,8.55,2.24,12.96,3.4-1.6,4.17-3.22,8.4-5.25,13.69,8.46,0,16.05.37,23.6-.12,5.75-.37,10.33,1.35,14.89,5.57-2.88,7.65-5.73,15.57-8.85,23.37-2.14,5.35-2.47,9.94.72,15.47,7.86,13.63,17.34,25.5,30.91,33.74,2.34,1.42,5,2.31,7.5,3.45-5.96,12.43-9.19,13.14-20.07,4.74-11.09-8.57-19.84-19.03-26.47-31.33-2.52-4.69-3.52-4.73-6.77-.57-11.87,15.24-25.59,28.29-43.12,36.98-3.64,1.8-5.92,2.12-7.62-2.33-.96-2.5-3.02-4.58-4.64-6.93Z"/>
        <path class="cls-1" d="M896.98,635.58c2.95-.81,5.94-1.48,8.83-2.46,8.79-2.97,17.5-2.98,26.31-.02,11.65,3.9,17.58,12.41,18.35,24.12.84,12.69-5.35,21.95-16.56,27.74-9.59,4.96-19.98,6.93-30.67,7.57-.66.04-1.33.06-1.99.14q-10.65,1.34-13.05-9.77c9.43-1.55,18.88-3.03,28.29-4.7,2.75-.49,5.46-1.39,8.09-2.36,11.65-4.29,12.79-11.92,10.77-22.96-1.02-5.57-7.04-9.07-14.12-9.88-21.12-2.41-37.97,5.66-51.98,20.85-.56.61-1.19,1.18-1.7,1.83-.41.52-.69,1.14-.57.93-3.59-2.76-6.83-5.24-10.29-7.9,17.8-17.95,34.76-35.05,51.72-52.15-.27-.51-.55-1.02-.82-1.53-12.41.91-24.81,1.81-37.54,2.74v-12.34c5.23-.35,10.33-.64,15.41-1.04,11.7-.93,23.39-1.99,35.09-2.8,1.56-.11,3.55.51,4.72,1.52,2.49,2.14,4.57,4.76,7.03,7.42-13.5,9.66-25.3,21.15-36.27,33.49.31.52.62,1.04.93,1.56Z"/>
        <path class="cls-1" d="M439.96,656.11c0-6.98-.18-13.23.21-19.45.05-.85,2.93-2.16,4.51-2.17,13.92-.11,27.85.11,41.77.08,28.28-.06,56.57-.22,84.85-.32,1.62,0,3.25.14,5.67.25-.35,7.19-.68,14.07-1.05,21.6h-135.97Z"/>
        <path class="cls-1" d="M1425.63,656.06v-20.83h111.14v20.83h-111.14Z"/>
        <path class="cls-1" d="M1355.78,669c-1.25,1.92-2,2.96-2.62,4.07-3.74,6.63-3.82,6.83-10.58,3.54-5.2-2.53-10.1-5.66-15.18-8.43-1.21-.66-2.63-.96-4.75-1.7,0,3.25-.19,5.7.04,8.1.46,4.71-1.68,5.95-5.93,4.95-1.44-.34-2.96-.36-5.05-.59v-16.57c-2.42.81-4.12,1.11-5.55,1.9-5.52,3.03-11.08,6.03-16.4,9.39-4.7,2.96-5.81-1.06-7.5-3.56-2.24-3.3.3-4.54,2.86-5.84,5.47-2.77,10.89-5.67,16.25-8.67,1.44-.81,2.59-2.15,3.87-3.25-.15-.4-.3-.81-.45-1.21-5.5-.35-11.01-.7-16.86-1.07v-24.59h58.79c0,4.01-.25,7.94.06,11.82.5,6.38-2.57,14.33,8.43,16.86-4.21,2.68-7.34,4.45-10.18,6.59-1.17.88-2.58,2.79-2.32,3.86.26,1.11,2.3,2.14,3.75,2.56,2.8.81,5.72,1.16,9.32,1.84ZM1300.09,641.99h34.26v-9.43h-34.26v9.43ZM1341.6,651.99h-17.41c4.88,7.11,10.82,7.14,17.41,0Z"/>
        <path class="cls-1" d="M1357.01,684.23c-.64,2.89-.7,5.89-2.02,8.17-.93,1.61-3.49,2.96-5.45,3.15-4.79.45-9.65.24-14.48.16-12.65-.19-25.3-.39-37.94-.72-9.27-.24-17.69-3.03-24.29-9.74-3.12-3.18-4.8-2.53-7.49.56-3.1,3.57-7.03,6.43-10.97,9.93-1.96-4.26-3.58-7.78-5.23-11.35,3.25-2.44,7.11-4.58,9.93-7.67,2.14-2.35,3.89-5.83,4.14-8.94.58-7.08.29-14.26-.04-21.38-.05-1.15-1.94-2.6-3.29-3.18-1.27-.54-2.97-.3-4.44-.09-4.51.64-5.97-1.02-6.02-5.7-.05-4.88,1.44-6.43,6.21-6.1,4.97.34,10,.24,14.98-.11,3.86-.27,4.92,1.13,4.68,4.83-.44,6.79-.59,13.61-.59,20.42,0,5.14-.33,10.47.94,15.33.81,3.08,3.81,6.18,6.65,8.03,7.55,4.9,16.5,5.02,25.05,5.03,14.24.03,28.49-.93,42.74-1.36,2.26-.07,4.54.46,6.94.73Z"/>
        <path class="cls-1" d="M1280.12,610.93c8.9,0,17.53,0,26.16,0,2.66,0,5.39.53,5.35-3.78-.04-4.46-2.76-4.03-5.69-3.99-5.96.08-11.91.02-18.22.02v-7.96h23.5c.22-3.3.4-5.86.6-8.91,2.15,0,4.11.16,6.03-.03,4.18-.43,6.47.59,5.14,5.42-.74,2.71.91,3.45,3.35,3.43,6.98-.06,13.95-.02,21.55-.02.15,2.67.28,5.02.45,7.96-7.42,0-14.35.14-21.28-.06-3.05-.09-4.67.46-4.63,3.97.04,3.29,1.35,4.3,4.51,4.23,7.98-.18,15.97-.08,23.95-.12,2.45-.01,4.65-.13,4.56,3.49-.08,3.25-.94,4.77-4.58,4.74-21.63-.18-43.25-.14-64.88-.2-6.53-.02-6.89-.5-5.88-8.17Z"/>
        <path class="cls-1" d="M361.52,636.13v19.49h-40.63c.35-6.4.68-12.61,1.05-19.49h39.58Z"/>
        <path class="cls-1" d="M1596.74,632.23c8.36.04,15.58,7.03,15.51,15-.07,6.79-8.57,14.51-15.94,14.47-8.14-.05-14.93-6.6-14.87-14.35.07-8.3,7-15.15,15.31-15.12Z"/>
        <path class="cls-1" d="M681.29,661.69c-4.22,22.56-13.2,28.04-34.84,34.12-3.02.85-5.49.26-5.88-3.83-.19-1.99-1.55-3.88-2.46-5.98,4.91-1.59,9.75-3.09,14.53-4.73,8.41-2.89,12.87-9.25,14.06-17.65.57-4.05,1.91-4.69,5.43-3.71,2.99.83,6.11,1.21,9.16,1.79Z"/>
        <path class="cls-1" d="M1717.56,660.13c-8.28-.18-14.46-6.26-14.27-14.02.18-7.19,7.46-13.97,14.89-13.87,7.76.1,14.74,7.01,14.73,14.59,0,6.81-7.7,13.47-15.36,13.3Z"/>
        <path class="cls-1" d="M2021.71,424.77c-3.38,10.31-6.7,20.64-10.24,30.89-.38,1.1-2.11,2.47-3.12,2.4-1.06-.07-2.55-1.57-2.91-2.73-2.51-8.06-5.18-16.12-6.97-24.35-1-4.62-3.7-3.64-6.63-3.67-3-.04-5.07.31-5.05,4.21.02,7.47-.31,14.95-.7,22.41-.08,1.48-1.13,2.91-1.73,4.36-.71-1.52-1.98-3.01-2.03-4.55-.22-6.82-.21-13.65-.04-20.46.08-3.34-.46-5.43-4.52-5.33-1.72.04-3.47-1.12-5.1-2.37,8.87-1.8,17.66-2.83,26.44-.78,1.24.29,2.49,2.43,2.93,3.95,1.58,5.4,2.75,10.92,4.2,16.36.49,1.82,1.38,3.54,2.39,6.05,6.78-8.35,3.17-20.51,11.13-27.19.65.27,1.3.54,1.94.81Z"/>
        <path class="cls-1" d="M1277.32,607.67c-2.24,1.63-3.86,2.23-4.52,3.38-3.43,5.99-5.88,2.64-8.7-.56-4.12-4.68-8.44-9.18-12.89-14,2.34-1.88,4.32-3.91,6.71-5.19,1.22-.65,3.82-.57,4.68.3,4.95,5.02,9.57,10.36,14.73,16.08Z"/>
      </g>
    </g>
  </g>
</svg>