<?xml version="1.0" encoding="UTF-8"?>
<svg id="Layer_1" xmlns="http://www.w3.org/2000/svg" version="1.1" viewBox="0 0 172 172">
  <!-- Generator: Adobe Illustrator 29.1.0, SVG Export Plug-In . SVG Version: 2.1.0 Build 142)  -->
  <defs>
    <style>
      .st0 {
        fill: #fff;
      }
    </style>
  </defs>
  <path class="st0" d="M133.9,23.2c7.7.6,13.8,6.1,14.8,13.9.2,32.7.2,65.5,0,98.2-1.1,7.6-7.3,13.2-15,13.6H57.3c-.9-1.9-3.1-2.3-4.8-3.1v-25c19.1,7.2,42.1,8.1,59.4-4.1s20.8-50.4-3.6-64.9-37.1-8.7-54.2-2.4c-11.5,4.3-22,11-31,19.2v-30.8c.5-7.9,6.9-14.1,14.8-14.7h96Z"/>
  <path class="st0" d="M105.1,108.3c-9.9,10.8-24.1,12.2-38,10-5-.8-10-2.2-14.6-4.4v-55.2c2.8-1.9,5.9-3.5,9.1-4.6,12.8-4.7,28-4.8,39.1,3.9,15,11.7,17.2,36.3,4.3,50.3Z"/>
  <path class="st0" d="M39.6,145.8c-1,.5-2.2.9-3.1,1.5s-1,1-1.4,1-1.9-.6-2.5-.8c-5.3-2.3-8.9-7.6-9.4-13.4v-55.2s3,4.7,3,4.7c2.3,0,2.6-1.9,2.5-3.8s-.6-2.1-.5-2.4.8-1.4,1-1.7c2.6-4.3,6.5-7.9,10.5-11v81Z"/>
</svg>