<?xml version="1.0" encoding="UTF-8"?>
<svg xmlns="http://www.w3.org/2000/svg" version="1.1" viewBox="0 0 411.02 113.39">
  <defs>
    <style>
      .cls-1, .cls-2 {
        fill: #fff;
      }

      .cls-2 {
        display: none;
      }
    </style>
  </defs>
  <!-- Generator: Adobe Illustrator 28.6.0, SVG Export Plug-In . SVG Version: 1.2.0 Build 709)  -->
  <g>
    <g id="Layer_1">
      <path class="cls-2" d="M134,27.45c-1.4-5.23-5.51-9.34-10.74-10.74-9.47-2.54-47.46-2.54-47.46-2.54,0,0-37.99,0-47.46,2.54-5.23,1.4-9.34,5.51-10.74,10.74-2.54,9.47-2.54,29.24-2.54,29.24,0,0,0,19.77,2.54,29.24,1.4,5.23,5.51,9.34,10.74,10.74,9.47,2.54,47.46,2.54,47.46,2.54,0,0,37.99,0,47.46-2.54,5.23-1.4,9.34-5.51,10.74-10.74,2.54-9.47,2.54-29.24,2.54-29.24,0,0,0-19.77-2.54-29.24ZM63.64,74.92v-36.45l31.56,18.22-31.56,18.22Z"/>
      <path class="cls-2" d="M162.33,68.99l-14.07-48.74h11.99l5.39,24.76.87,4c.52,2.08.98,4.14,1.39,6.17h.43l2.35-10.25,5.82-24.67h11.82l-13.9,48.74v24.24h-12.08v-24.24Z"/>
      <path class="cls-2" d="M191.39,91.58c-2.4-1.62-4.11-4.14-5.13-7.56-1.01-3.42-1.52-7.96-1.52-13.64v-7.73c0-5.73.58-10.34,1.74-13.81,1.16-3.48,2.97-6.01,5.43-7.6,2.46-1.59,5.69-2.39,9.69-2.39s7.09.81,9.47,2.43c2.37,1.62,4.11,4.16,5.21,7.6,1.1,3.45,1.65,8.04,1.65,13.77v7.73c0,5.68-.54,10.24-1.61,13.68-1.07,3.45-2.81,5.97-5.21,7.56-2.4,1.59-5.66,2.39-9.77,2.39s-7.54-.81-9.95-2.43ZM204.86,83.24c.67-1.74,1-4.57,1-8.51v-16.59c0-3.82-.33-6.62-1-8.38-.67-1.77-1.84-2.65-3.52-2.65s-2.77.88-3.43,2.65c-.67,1.77-1,4.56-1,8.38v16.59c0,3.94.32,6.78.96,8.51.64,1.74,1.79,2.61,3.48,2.61s2.85-.87,3.52-2.61Z"/>
      <path class="cls-2" d="M256.42,39.93v53.26h-9.38l-1.04-6.52h-.26c-2.43,4.92-6.14,7.38-11.12,7.38-3.59,0-6.24-1.14-7.95-3.43-1.71-2.29-2.56-5.92-2.56-10.9v-39.79h11.99v39.1c0,2.32.26,4,.78,5.04.52,1.04,1.39,1.56,2.61,1.56,1.04,0,2.01-.33,2.91-1,.9-.67,1.58-1.55,2.04-2.65v-42.05h11.99Z"/>
      <path class="cls-2" d="M289.08,30.03h-11.64v63.16h-12.16V30.03h-11.64v-9.73h35.45v9.73Z"/>
      <path class="cls-2" d="M318.25,39.93v53.26h-9.38l-1.04-6.52h-.26c-2.43,4.92-6.14,7.38-11.12,7.38-3.59,0-6.24-1.14-7.95-3.43-1.71-2.29-2.56-5.92-2.56-10.9v-39.79h11.99v39.1c0,2.32.26,4,.78,5.04.52,1.04,1.39,1.56,2.61,1.56,1.04,0,2.01-.33,2.91-1,.9-.67,1.58-1.55,2.04-2.65v-42.05h11.99Z"/>
      <path class="cls-2" d="M375.76,70.6v2.69c0,3.42.1,5.98.3,7.69.2,1.71.62,2.95,1.26,3.74.64.78,1.62,1.17,2.95,1.17,1.79,0,3.03-.7,3.69-2.09.67-1.39,1.03-3.71,1.09-6.95l10.34.61c.06.46.09,1.1.09,1.91,0,4.92-1.35,8.6-4.04,11.03-2.69,2.43-6.5,3.65-11.42,3.65-5.91,0-10.05-1.85-12.42-5.56-2.38-3.71-3.56-9.44-3.56-17.2v-9.3c0-7.99,1.23-13.83,3.69-17.51,2.46-3.68,6.67-5.52,12.64-5.52,4.11,0,7.27.75,9.47,2.26,2.2,1.51,3.75,3.85,4.65,7.04.9,3.19,1.35,7.59,1.35,13.21v9.12h-20.07ZM377.28,48.19c-.61.75-1.01,1.98-1.22,3.69-.2,1.71-.3,4.3-.3,7.78v3.82h8.77v-3.82c0-3.42-.12-6.01-.35-7.78-.23-1.77-.65-3.01-1.26-3.74-.61-.72-1.55-1.09-2.82-1.09s-2.22.38-2.82,1.13Z"/>
      <path class="cls-2" d="M357.91,48.45c-.73-3.36-1.9-5.79-3.52-7.3-1.62-1.51-3.85-2.26-6.69-2.26-2.2,0-4.26.62-6.17,1.87-1.91,1.25-3.39,2.88-4.43,4.91h-.09v-28.06s-11.29,0-11.29,0v75.58h9.64l1.22-5.04h.26c.93,1.8,2.32,3.21,4.17,4.26,1.85,1.04,3.91,1.56,6.17,1.56,4.05,0,7.04-1.87,8.95-5.6,1.91-3.74,2.87-9.57,2.87-17.51v-8.43c0-5.96-.36-10.63-1.09-13.99ZM346.92,70.17c0,3.88-.16,6.92-.48,9.12-.32,2.2-.85,3.77-1.61,4.69-.75.93-1.77,1.39-3.04,1.39-.99,0-1.9-.23-2.74-.69-.84-.46-1.52-1.16-2.04-2.09v-30.23c.4-1.45,1.1-2.64,2.09-3.56.98-.93,2.06-1.39,3.21-1.39,1.22,0,2.16.48,2.82,1.43.67.96,1.13,2.56,1.39,4.82.26,2.26.39,5.47.39,9.64v6.86Z"/>
      <g>
        <path class="cls-1" d="M211.06,41.24c-2.38-1.62-5.53-2.43-9.47-2.43s-7.23.8-9.69,2.39c-2.46,1.59-4.27,4.13-5.43,7.6-1.16,3.47-1.74,8.08-1.74,13.81v7.73c0,5.68.51,10.22,1.52,13.64,1.01,3.42,2.72,5.94,5.13,7.56,2.4,1.62,5.72,2.43,9.95,2.43s7.37-.8,9.77-2.39c2.4-1.59,4.14-4.11,5.21-7.56,1.07-3.45,1.61-8.01,1.61-13.68v-7.73c0-5.73-.55-10.32-1.65-13.77-1.1-3.45-2.84-5.98-5.21-7.6ZM205.85,74.68c0,3.94-.33,6.78-1,8.51-.67,1.74-1.84,2.61-3.52,2.61s-2.84-.87-3.47-2.61c-.64-1.74-.96-4.57-.96-8.51v-16.59c0-3.82.33-6.62,1-8.38.66-1.77,1.81-2.65,3.43-2.65s2.85.88,3.52,2.65c.66,1.77,1,4.56,1,8.38v16.59Z"/>
        <path class="cls-1" d="M395.97,70.47v-9.12c0-5.62-.45-10.02-1.35-13.21-.9-3.18-2.45-5.53-4.65-7.04-2.2-1.51-5.36-2.26-9.47-2.26-5.97,0-10.18,1.84-12.64,5.52-2.46,3.68-3.69,9.51-3.69,17.51v9.3c0,7.76,1.19,13.5,3.56,17.2,2.37,3.71,6.52,5.56,12.42,5.56,4.92,0,8.73-1.22,11.42-3.65s4.04-6.11,4.04-11.03c0-.81-.03-1.45-.09-1.91l-10.34-.61c-.06,3.24-.42,5.56-1.09,6.95-.67,1.39-1.9,2.09-3.69,2.09-1.33,0-2.32-.39-2.95-1.17-.64-.78-1.06-2.03-1.26-3.74-.2-1.71-.3-4.27-.3-7.69v-2.69h20.07ZM375.91,59.52c0-3.48.1-6.07.3-7.78.2-1.71.61-2.94,1.22-3.69.61-.75,1.55-1.13,2.82-1.13s2.22.36,2.82,1.09c.61.72,1.03,1.97,1.26,3.74.23,1.77.35,4.36.35,7.78v3.82h-8.77v-3.82Z"/>
        <path class="cls-1" d="M175.92,20.21l-4.95,22.41c-1.39,6.55-2.29,11.21-2.69,13.99h-.35c-.58-3.88-1.48-8.57-2.69-14.07l-4.78-22.33h-11.9l13.64,49.26v23.63h11.82v-23.63l13.81-49.26h-11.9Z"/>
        <path class="cls-1" d="M244.65,82.15c-.46.99-1.17,1.8-2.13,2.43-.96.64-1.95.96-3,.96-1.22,0-2.08-.51-2.61-1.52-.52-1.01-.78-2.71-.78-5.08v-39.09h-11.99v39.79c0,4.92.84,8.54,2.52,10.86,1.68,2.32,4.29,3.47,7.82,3.47,5.1,0,8.92-2.46,11.47-7.38h.26l1.04,6.52h9.38v-53.26h-11.99v42.31Z"/>
        <path class="cls-1" d="M306.14,82.15c-.46.99-1.17,1.8-2.13,2.43-.96.64-1.95.96-3,.96-1.22,0-2.08-.51-2.61-1.52-.52-1.01-.78-2.71-.78-5.08v-39.09h-11.99v39.79c0,4.92.84,8.54,2.52,10.86,1.68,2.32,4.29,3.47,7.82,3.47,5.1,0,8.92-2.46,11.47-7.38h.26l1.04,6.52h9.38v-53.26h-11.99v42.31Z"/>
        <polygon class="cls-1" points="289.21 20.21 253.68 20.21 253.68 29.85 265.58 29.85 265.58 93.1 277.31 93.1 277.31 29.85 289.21 29.85 289.21 20.21"/>
        <path class="cls-1" d="M354.29,41.06c-1.62-1.51-3.85-2.26-6.69-2.26-2.2,0-4.26.62-6.17,1.87-1.91,1.25-3.39,2.88-4.43,4.91h-.09v-28.06s-11.55,0-11.55,0v75.58h9.9l1.22-5.04h.26c.93,1.8,2.32,3.21,4.17,4.26,1.85,1.04,3.91,1.56,6.17,1.56,4.05,0,7.04-1.87,8.95-5.6,1.91-3.74,2.87-9.57,2.87-17.51v-8.43c0-5.96-.36-10.63-1.09-13.99-.73-3.36-1.9-5.79-3.52-7.3ZM346.82,70.08c0,3.88-.16,6.92-.48,9.12-.32,2.2-.85,3.77-1.61,4.69-.75.93-1.77,1.39-3.04,1.39-.99,0-1.9-.23-2.74-.7-.84-.46-1.52-1.16-2.04-2.08v-30.23c.4-1.45,1.1-2.63,2.09-3.56.98-.93,2.06-1.39,3.21-1.39,1.22,0,2.16.48,2.82,1.43.67.96,1.13,2.56,1.39,4.82.26,2.26.39,5.47.39,9.64v6.86Z"/>
        <path class="cls-1" d="M123.26,16.71c-9.47-2.54-47.46-2.54-47.46-2.54,0,0-37.99,0-47.46,2.54-5.23,1.4-9.34,5.51-10.74,10.74-2.54,9.47-2.54,29.24-2.54,29.24,0,0,0,19.77,2.54,29.24,1.4,5.23,5.51,9.34,10.74,10.74,9.47,2.54,47.46,2.54,47.46,2.54,0,0,37.99,0,47.46-2.54,5.23-1.4,9.34-5.51,10.74-10.74,2.54-9.47,2.54-29.24,2.54-29.24,0,0,0-19.77-2.54-29.24-1.4-5.23-5.51-9.34-10.74-10.74ZM63.64,74.92v-36.45l31.56,18.22-31.56,18.22Z"/>
      </g>
    </g>
  </g>
</svg>